<?xml version="1.0" encoding="utf-8"?>
<!-- Generator: Adobe Illustrator 17.0.0, SVG Export Plug-In . SVG Version: 6.00 Build 0)  -->
<!DOCTYPE svg PUBLIC "-//W3C//DTD SVG 1.1//EN" "http://www.w3.org/Graphics/SVG/1.1/DTD/svg11.dtd">
<svg version="1.1" id="Layer_1" xmlns="http://www.w3.org/2000/svg" xmlns:xlink="http://www.w3.org/1999/xlink" x="0px" y="0px"
	 width="255.246px" height="72.511px" viewBox="0 0 255.246 72.511" enable-background="new 0 0 255.246 72.511"
	 xml:space="preserve">
<rect x="78.443" y="26.798" fill="none" width="176.803" height="22.582"/>
<text transform="matrix(1 0 0 1 78.4432 44.4856)" font-family="'Aller-Light'" font-size="24">majkenhald.com</text>
<g>
	<path fill-rule="evenodd" clip-rule="evenodd" d="M14.962,7.731c0.615-0.003,0.917,0.341,1.177,0.756
		c0.234,0.374,0.135,0.675-0.196,0.911c-0.208,0.148-0.3,0.268-0.122,0.517c0.329,0.459,0.172,0.788-0.369,0.919
		c-0.869,0.21-1.535,0.771-2.186,1.341c-0.246,0.215-0.462,0.464-0.629,0.751c0.505-0.232,0.994-0.512,1.519-0.679
		c0.399-0.127,0.846-0.157,1.27-0.148c0.816,0.019,1.23,0.606,0.938,1.36c-0.062,0.159-0.312,0.332-0.485,0.343
		c-0.801,0.051-1.46,0.483-2.17,0.767c-0.297,0.119-0.548,0.366-0.8,0.578c-0.685,0.575-1.372,1.148-2.034,1.749
		c-0.651,0.592-1.323,1.173-1.891,1.841c-0.471,0.555-0.808,1.225-1.196,1.85c-0.191,0.308-0.364,0.628-0.545,0.942
		c0.046,0.028,0.092,0.057,0.138,0.085c0.12-0.188,0.237-0.378,0.362-0.562c0.456-0.671,0.891-1.36,1.381-2.005
		c0.411-0.539,0.855-1.064,1.349-1.527c0.461-0.433,0.991-0.797,1.518-1.151c0.958-0.643,1.932-1.258,2.905-1.877
		c0.634-0.403,1.334-0.53,2.076-0.459c0.077,0.007,0.156-0.011,0.219-0.016c-0.198-0.931-0.001-1.728,0.665-2.436
		c-0.677-0.424-0.497-1.069-0.489-1.711c0.004-0.35-0.258-0.701-0.393-1.055c-0.116-0.306-0.285-0.609-0.317-0.925
		C16.616,7.476,16.47,7.22,16.071,7.09c-0.113-0.037-0.197-0.167-0.297-0.257c-0.031,0.036-0.078,0.089-0.124,0.143
		c0.074-0.418-0.343-0.703-0.199-1.199c0.134-0.462,0.319-0.863,0.573-1.244c0.457-0.686,0.979-1.308,1.75-1.678
		c0.933-0.447,1.849-0.929,2.784-1.372c0.265-0.125,0.572-0.162,0.856-0.25c0.686-0.213,1.357-0.51,2.058-0.632
		c1.178-0.206,2.375-0.304,3.565-0.442c0.54-0.063,1.088-0.193,1.621-0.151c0.905,0.07,1.8,0.26,2.701,0.385
		c0.48,0.067,0.971,0.07,1.445,0.163C33.6,0.712,34.4,0.881,35.18,1.11c1.015,0.299,2.032,0.611,3.01,1.011
		c0.963,0.393,1.877,0.903,2.812,1.362c0.474,0.232,0.967,0.433,1.415,0.707c1,0.611,1.986,1.246,2.961,1.895
		c0.896,0.597,1.795,1.194,2.649,1.848c0.742,0.567,1.464,1.172,2.122,1.833c0.885,0.887,1.685,1.858,2.552,2.764
		c0.606,0.632,1.306,1.177,1.888,1.828c0.684,0.764,1.339,1.565,1.911,2.414c0.73,1.086,1.412,2.211,2.025,3.366
		c0.416,0.784,0.734,1.633,0.994,2.484c0.32,1.045,0.528,2.125,0.803,3.185c0.027,0.104,0.174,0.234,0.282,0.251
		c0.304,0.05,0.625,0.009,0.923,0.074c0.442,0.095,0.72,0.467,0.867,0.833c0.182,0.453,0.162,0.984,0.317,1.452
		c0.122,0.367,0.415,0.674,0.565,1.036c0.203,0.485,0.47,0.996,0.478,1.5c0.015,0.79-0.177,1.583-0.255,2.378
		c-0.055,0.559-0.097,1.122-0.083,1.681c0.004,0.182,0.176,0.384,0.318,0.532c0.305,0.317,0.629,0.618,0.964,0.904
		c0.824,0.705,1.648,1.411,2.495,2.089c0.38,0.304,0.827,0.521,1.214,0.815c0.116,0.088,0.231,0.354,0.18,0.45
		c-0.111,0.207-0.304,0.462-0.509,0.511c-0.476,0.118-0.952,0.262-1.441-0.149c-0.703-0.591-1.504-1.062-2.241-1.616
		c-0.394-0.296-0.74-0.655-1.166-1.038c-0.196,0.384-0.091,0.668,0.173,0.893c0.675,0.571,1.387,1.101,2.038,1.697
		c0.426,0.39,0.772,0.867,1.207,1.367c-0.451,0.056-0.927-0.191-1.266,0.266c0.33,0.096,0.592,0.172,0.942,0.274
		c-0.733,0.454-1.263,0.013-1.824-0.138c-0.103-0.886-1.136-0.94-1.463-1.628c-0.026-0.055-0.145-0.116-0.187-0.099
		c-0.075,0.032-0.169,0.119-0.177,0.192c-0.063,0.51-0.117,1.021-0.145,1.534c-0.005,0.104,0.097,0.233,0.183,0.317
		c0.652,0.648,1.312,1.287,2.008,1.967c-0.176,0.065-0.357,0.133-0.587,0.218c0.07,0.137,0.147,0.288,0.228,0.447
		c-0.298,0.252-0.705,0.17-1.219-0.237c-0.38-0.302-0.781-0.577-1.134-0.837c-0.274,0.624-0.546,1.26-0.832,1.891
		c-0.203,0.447-0.327,0.889-0.169,1.388c0.102,0.327,0.195,0.679,0.183,1.016c-0.013,0.337-0.058,0.788-0.274,0.975
		c-0.343,0.297-0.829,0.217-1.222-0.065c-0.501-0.36-0.6-0.345-0.982,0.183c-0.42,0.58-1.047,0.843-1.688,1.065
		c-0.365,0.127-0.492,0.339-0.545,0.714c-0.056,0.392-0.243,0.764-0.375,1.144c-0.301,0.862-0.684,1.678-1.159,2.47
		c-0.496,0.826-0.829,1.751-1.25,2.624c-0.21,0.437-0.358,0.996-0.713,1.245c-0.534,0.374-0.513,1.033-0.989,1.419
		c-0.457,0.372-0.812,0.874-1.191,1.336c-0.755,0.919-1.612,1.694-2.656,2.3c-0.773,0.448-1.424,1.104-2.158,1.626
		c-0.599,0.425-1.294,0.726-1.852,1.194c-0.695,0.587-1.5,0.928-2.278,1.354c-0.564,0.31-1.086,0.726-1.685,0.996
		c-0.357,0.16-0.734,0.277-1.096,0.431c-0.845,0.358-1.674,0.758-2.534,1.076c-0.472,0.176-1.032,0.133-1.485,0.336
		c-1.51,0.68-3.119,0.896-4.73,0.972c-1.603,0.076-3.22-0.003-4.824-0.108c-0.866-0.056-1.75-0.216-2.57-0.491
		c-1.66-0.557-3.304-1.174-4.912-1.866c-1.002-0.432-1.958-0.993-2.872-1.593c-0.705-0.464-1.323-1.063-1.957-1.628
		c-0.664-0.59-1.329-1.184-1.939-1.827c-0.669-0.704-1.288-1.46-1.905-2.212c-0.374-0.455-0.708-0.944-1.051-1.425
		c-0.134-0.188-0.247-0.39-0.363-0.589c-0.446-0.77-0.918-1.525-1.319-2.317c-0.201-0.396-0.211-0.889-0.415-1.282
		c-0.233-0.445-0.494-0.861-0.633-1.358c-0.272-0.975-0.596-1.935-0.912-2.897c-0.183-0.558-0.389-1.107-0.589-1.66
		c-0.014-0.039-0.058-0.072-0.095-0.097c-0.369-0.245-0.72-0.526-1.112-0.726c-1.299-0.659-1.774-1.823-1.978-3.153
		c-0.181-1.173-0.34-2.351-0.495-3.527c-0.144-1.089-0.361-2.178-0.382-3.27c-0.029-1.556,0.122-3.114,0.138-4.672
		c0.016-1.527-0.07-3.056-0.052-4.583C0.095,29.637,0.13,29,0.424,28.648c0.487-0.583,0.464-1.172,0.455-1.825
		c-0.009-0.667,0.023-1.335,0.049-2.002c0.039-0.977,0.019-1.963,0.151-2.929c0.164-1.196,0.408-2.386,0.71-3.554
		c0.217-0.84,0.53-1.668,0.905-2.452c0.268-0.561,0.708-1.041,1.073-1.556c0.386-0.544,0.745-1.11,1.17-1.622
		c0.365-0.44,0.839-0.789,1.205-1.228c0.544-0.655,1.298-1.026,1.94-1.546c0.484-0.393,0.957-0.801,1.465-1.159
		c0.5-0.352,1.031-0.662,1.561-0.97c0.652-0.378,1.276-0.806,2.06-0.92c0.328-0.047,0.619-0.325,0.949-0.401
		c0.442-0.102,0.845,0.09,1.073,0.473C15.335,7.202,15.515,7.557,14.962,7.731z M6.333,51.299c0.195,0.403,0.431,0.793,0.575,1.214
		c0.168,0.492,0.228,1.021,0.387,1.516c0.21,0.654,0.422,1.315,0.719,1.931c0.458,0.947,0.991,1.859,1.487,2.79
		c0.106,0.197,0.167,0.421,0.288,0.606c0.196,0.299,0.433,0.571,0.639,0.863c0.337,0.479,0.603,1.022,1.003,1.435
		c0.939,0.969,1.898,1.925,2.927,2.793c0.933,0.787,1.95,1.481,2.969,2.157c0.573,0.38,1.222,0.646,1.844,0.948
		c0.419,0.204,0.839,0.416,1.28,0.562c0.742,0.246,1.491,0.479,2.252,0.651c1.149,0.26,2.308,0.483,3.469,0.679
		c0.432,0.073,0.884,0.034,1.327,0.027c0.981-0.016,1.979,0.059,2.941-0.093c1.156-0.181,2.289-0.532,3.418-0.858
		c0.981-0.283,1.963-0.585,2.908-0.968c1.094-0.445,2.176-0.936,3.21-1.504c1.095-0.601,2.133-1.306,3.182-1.988
		c0.62-0.403,1.208-0.855,1.816-1.276c0.477-0.33,0.962-0.65,1.446-0.972c0.44-0.293,0.924-0.535,1.317-0.882
		c0.552-0.487,1.023-1.064,1.555-1.576c0.638-0.615,1.209-1.266,1.636-2.055c0.628-1.162,1.275-2.318,1.986-3.431
		c0.34-0.533,0.3-1.235,0.847-1.676c0.159-0.128,0.188-0.455,0.209-0.697c0.008-0.084-0.201-0.275-0.29-0.265
		c-0.325,0.043-0.637,0.174-0.961,0.229c-1.146,0.199-2.289,0.421-3.443,0.558c-1.379,0.165-2.749,0.216-4.121-0.215
		c-0.981-0.307-2.061-0.264-2.985-0.823c-0.659-0.398-1.371-0.713-2.012-1.137c-0.536-0.354-1.021-0.792-1.496-1.229
		c-0.562-0.517-1.105-1.055-1.624-1.614c-0.495-0.531-0.952-1.099-1.419-1.656c-0.59-0.706-1.31-1.348-1.725-2.147
		c-0.563-1.087-0.896-2.294-1-3.54c-0.087-1.044-0.184-2.088-0.29-3.131c-0.056-0.552-0.158-1.099-0.207-1.651
		c-0.118-1.327-0.204-2.657-0.339-3.982c-0.015-0.146-0.261-0.385-0.394-0.381c-0.515,0.014-1.027,0.108-1.505,0.168
		c-0.072,0.625-0.143,1.289-0.227,1.952c-0.139,1.088-0.274,2.178-0.438,3.262c-0.037,0.247-0.228,0.467-0.281,0.714
		c-0.191,0.884-0.293,1.779-0.739,2.604c-0.312,0.577-0.48,1.232-0.698,1.858c-0.181,0.521-0.324,1.056-0.514,1.574
		c-0.129,0.353-0.312,0.688-0.468,1.031c-0.08,0.173-0.138,0.359-0.236,0.522c-0.195,0.321-0.413,0.629-0.619,0.944
		c-0.451,0.692-0.819,1.432-1.517,1.952c-0.323,0.24-0.582,0.643-0.731,1.026c-0.2,0.511-0.316,1.029-0.881,1.288
		c-0.497,0.229-1.03,0.426-1.452,0.758c-0.808,0.634-1.807,0.677-2.714,0.983c-0.551,0.188-1.175,0.181-1.769,0.218
		c-1.843,0.116-3.687,0.244-5.532,0.309C9.689,51.733,8.035,51.7,6.333,51.299z M19.14,30.67c-0.251,0.021-0.58,0.077-0.906,0.067
		c-0.297-0.009-0.594-0.132-0.89-0.129c-0.417,0.005-0.833,0.12-1.248,0.116c-0.598-0.005-1.194-0.103-1.791-0.108
		c-0.377-0.002-0.756,0.145-1.131,0.13c-0.455-0.018-0.903-0.175-1.359-0.202c-1.116-0.065-2.236-0.146-3.351-0.11
		c-0.826,0.026-1.645,0.234-2.469,0.347c-0.591,0.081-1.186,0.126-1.775,0.218c-0.151,0.024-0.361,0.134-0.409,0.257
		c-0.12,0.306-0.193,0.639-0.23,0.967c-0.105,0.922-0.221,1.847-0.261,2.774c-0.036,0.841,0.002,1.686,0.043,2.528
		c0.06,1.216,0.129,2.432,0.236,3.646c0.095,1.077,0.254,2.15,0.367,3.228c0.055,0.526,0.059,1.057,0.109,1.583
		c0.078,0.818,0.649,1.261,1.303,1.609c0.299,0.159,0.663,0.203,0.95,0.377c1.054,0.64,2.262,0.806,3.42,1.073
		c0.859,0.199,1.787,0.093,2.683,0.146c1.012,0.059,1.999-0.199,3.012-0.194c0.634,0.004,1.274-0.189,1.903-0.331
		c0.528-0.118,1.09-0.204,1.554-0.457c0.693-0.378,1.332-0.865,1.957-1.354c0.583-0.455,1.204-0.905,1.657-1.478
		c0.806-1.02,1.451-2.157,2.005-3.339c0.189-0.404,0.417-0.792,0.582-1.205c0.186-0.467,0.321-0.955,0.478-1.434
		c0.03-0.092,0.071-0.184,0.078-0.277c0.112-1.562,0.221-3.125,0.327-4.688c0.021-0.304,0.034-0.61,0.036-0.915
		c0.004-0.885,0.001-1.769,0.001-2.653c-0.575,0-1.032,0-1.489,0c-1.447,0.002-2.894,0.018-4.34,0
		C19.86,30.861,19.53,30.746,19.14,30.67z M47.661,32.45c-0.145-0.158-0.236-0.263-0.334-0.361c-0.432-0.432-0.877-0.85-1.294-1.293
		c-0.524-0.556-0.962-1.25-1.908-0.997c-0.108,0.029-0.233-0.007-0.35,0.002c-1.223,0.089-2.447,0.198-3.672,0.267
		c-1.516,0.086-3.034,0.138-4.662,0.21c0,1.029-0.038,2.033,0.009,3.032c0.053,1.136,0.152,2.271,0.283,3.4
		c0.105,0.91,0.329,1.802,0.411,2.72c0.05,0.561,0.287,1.103,0.429,1.655c0.07,0.271,0.053,0.583,0.18,0.821
		c0.366,0.69,0.768,1.363,1.188,2.024c0.249,0.391,0.534,0.764,0.845,1.106c0.268,0.296,0.657,0.492,0.889,0.808
		c0.57,0.775,1.408,1.215,2.141,1.774c0.576,0.44,1.277,0.721,1.933,1.052c0.176,0.088,0.48,0.033,0.572,0.157
		c0.363,0.492,0.936,0.447,1.388,0.479c1.385,0.097,2.779,0.058,4.169,0.074c0.944,0.012,1.807-0.317,2.642-0.689
		c1.002-0.447,1.974-0.965,2.954-1.461c0.518-0.263,1.019-0.556,1.538-0.814c0.358-0.179,0.514-0.395,0.298-0.789
		c-0.137-0.25-0.227-0.524-0.357-0.778c-0.487-0.951-1.016-1.884-1.459-2.854c-0.199-0.438-0.49-0.713-0.872-0.951
		c-0.194-0.12-0.362-0.285-0.635-0.506c0.278-0.018,0.423-0.026,0.655-0.041c-0.1-0.215-0.147-0.389-0.247-0.521
		c-0.321-0.417-0.664-0.818-0.997-1.227c-0.653-0.803-1.286-1.624-1.965-2.404c-0.712-0.818-1.433-1.635-2.223-2.375
		c-0.367-0.344-0.637-0.862-1.277-0.907c-0.265-0.019-0.511-0.306-0.855-0.529C47.321,32.498,47.432,32.483,47.661,32.45z
		 M40.608,26.014c-0.002-0.06-0.003-0.119-0.004-0.179c-0.119-0.044-0.261-0.061-0.354-0.137c-0.416-0.339-0.799-0.719-1.227-1.04
		c-0.766-0.573-1.55-1.124-2.338-1.667c-0.648-0.446-1.304-0.881-1.972-1.296c-0.617-0.384-1.251-0.74-1.884-1.101
		c-0.568-0.324-1.113-0.723-1.722-0.935c-1.364-0.474-2.74-0.948-4.197-1.067c-1.243-0.102-2.488-0.349-3.732,0.011
		c-0.055,0.016-0.129-0.043-0.191-0.037c-1.217,0.127-2.443,0.12-3.634,0.525c-0.482,0.164-1.134,0.268-1.589-0.167
		c-0.428-0.408-0.616-0.149-0.92,0.145c-0.375,0.362-0.829,0.643-1.249,0.958c-0.515,0.387-1.056,0.743-1.538,1.167
		c-0.587,0.516-1.137,1.075-1.679,1.639c-0.412,0.429-0.819,0.871-1.169,1.35c-0.468,0.641-0.903,1.309-1.304,1.994
		C9.69,26.544,9.58,26.97,9.429,27.357c0.145,0.072,0.175,0.101,0.205,0.1c1.722-0.087,3.444-0.166,5.165-0.27
		c0.464-0.028,0.921-0.155,1.386-0.197c1.494-0.135,2.99-0.236,4.482-0.379c0.858-0.082,1.708-0.268,2.567-0.321
		c0.896-0.055,1.798,0.013,2.697-0.008c0.979-0.022,1.957-0.085,2.935-0.127c1.102-0.048,2.204-0.125,3.305-0.133
		C34.983,26.002,37.795,26.014,40.608,26.014z M31.517,18.02c-0.014,0.037-0.026,0.074-0.04,0.111
		c0.85,0.401,1.699,0.806,2.551,1.202c0.833,0.388,1.721,0.688,2.497,1.168c1.246,0.771,2.415,1.665,3.63,2.485
		c0.145,0.098,0.38,0.055,0.57,0.088c0.517,0.093,1.124,0.052,1.527,0.319c0.676,0.447,1.219,1.093,1.824,1.649
		c0.26,0.24,0.531,0.471,0.806,0.693c0.048,0.039,0.148,0.013,0.3,0.021c-0.443-0.442-0.814-0.853-1.227-1.216
		c-0.801-0.706-1.6-1.42-2.451-2.063c-0.505-0.381-1.104-0.638-1.666-0.939c-0.392-0.211-0.804-0.387-1.189-0.607
		c-0.893-0.509-1.774-1.037-2.663-1.553c-0.374-0.217-0.731-0.511-1.137-0.618C33.751,18.47,32.63,18.261,31.517,18.02z
		 M31.502,7.427c-0.156-0.128-0.213-0.212-0.288-0.231c-0.828-0.217-1.643-0.451-2.524-0.448c-0.446,0.002-0.868-0.065-1.341,0.004
		c-1.251,0.182-2.405,0.584-3.449,1.26c-0.436,0.282-0.862,0.663-1.096,1.365c0.323-0.162,0.513-0.293,0.723-0.359
		c1.224-0.382,2.438-0.809,3.684-1.105c1.179-0.279,2.391-0.421,3.591-0.604C30.972,7.282,31.158,7.365,31.502,7.427z M6.458,14.052
		c-0.195,0.179-0.432,0.33-0.578,0.542c-0.436,0.63-0.886,1.258-1.238,1.936c-0.437,0.843-0.851,1.71-1.145,2.61
		c-0.266,0.815-0.376,1.685-0.52,2.536c-0.132,0.779-0.233,1.564-0.315,2.35c-0.021,0.206,0.077,0.424,0.12,0.636
		C3.583,20.935,4.204,17.22,6.458,14.052z M30.636,16.453c0.017-0.067,0.033-0.133,0.049-0.2c-0.484-0.138-0.969-0.271-1.452-0.415
		c-0.375-0.111-0.767-0.193-1.118-0.36c-0.651-0.309-1.308-0.543-2.04-0.455c-0.788,0.095-1.578,0.179-2.358,0.316
		c-0.337,0.06-0.653,0.24-0.978,0.365c0.01,0.042,0.019,0.084,0.029,0.127C25.432,15.508,28.032,16.016,30.636,16.453z
		 M17.294,15.75c-0.781,0.642-0.786,0.857-0.033,1.462c0.012,0.01,0.042,0.008,0.045,0.018c0.214,0.697,0.606,0.494,1.118,0.312
		c0.559-0.198,1.184-0.207,1.724-0.29c-0.068-0.141-0.218-0.304-0.188-0.422c0.043-0.171,0.216-0.309,0.334-0.46
		c-0.015-0.046-0.031-0.092-0.046-0.138c-0.206,0.031-0.428,0.023-0.616,0.1C18.846,16.655,17.791,16.404,17.294,15.75z
		 M34.641,13.45c0.02-0.065,0.04-0.13,0.061-0.195c-2.217-0.903-4.505-1.287-6.905-0.842c-0.114,0.021-0.223,0.077-0.444,0.157
		C29.889,12.876,32.265,13.163,34.641,13.45z M17.498,14.392c0.124,0.407,0.123,0.406,0.585,0.249
		c0.031-0.011,0.066-0.011,0.099-0.014c0.38-0.036,0.765-0.048,1.14-0.113c0.444-0.077,0.908-0.139,1.31-0.323
		c0.324-0.149,0.591-0.451,0.842-0.722c0.135-0.147,0.184-0.373,0.271-0.563c-0.177-0.052-0.352-0.121-0.533-0.152
		c-0.248-0.043-0.549,0.019-0.74-0.102c-0.397-0.252-0.589-0.262-0.828,0.187c-0.118,0.221-0.189,0.498-0.18,0.746
		c0.013,0.387-0.084,0.673-0.486,0.722C18.48,14.366,17.973,14.367,17.498,14.392z M22.25,4.564c0.187,0.026,0.382,0.099,0.56,0.069
		c0.278-0.046,0.538-0.206,0.816-0.24c0.858-0.105,1.722-0.163,2.581-0.26c0.246-0.027,0.529-0.066,0.712-0.208
		c0.174-0.135,0.241-0.41,0.405-0.718C25.454,2.918,23.856,3.673,22.25,4.564z M50.803,31.118c0.934,0.719,1.356,1.917,2.793,2.079
		c-0.868-1.046-1.664-2.005-2.459-2.965c-0.037,0.025-0.074,0.051-0.112,0.076c0.099,0.275,0.198,0.55,0.305,0.852
		C51.193,31.149,51.055,31.138,50.803,31.118z M44.616,11.936c0.018-0.478-1.066-1.361-3.218-2.566
		c0.086,0.291,0.15,0.509,0.215,0.726c0.09,0.123,0.083,0.333,0.165,0.378c0.671,0.364,1.361,0.695,2.043,1.04
		C44.081,11.645,44.334,11.786,44.616,11.936z M39.898,12.057c-0.154,0.203-0.375,0.326,0.076,0.582
		c0.656,0.37,1.223,0.894,1.843,1.332c0.477,0.338,0.976,0.647,1.466,0.969c0.035-0.047,0.07-0.094,0.104-0.141
		C42.293,13.819,41.286,12.735,39.898,12.057z M51.813,23.91c0.153-0.482-0.565-1.46-2.087-2.857
		c0.041,0.203,0.068,0.337,0.075,0.373c-0.125,0.226-0.291,0.394-0.282,0.552c0.005,0.108,0.255,0.201,0.396,0.302
		c0.244,0.174,0.503,0.33,0.727,0.527C51.04,23.159,51.417,23.535,51.813,23.91z M48.014,24.854
		c-0.686-1.274-2.425-2.698-2.949-2.579C45.826,23.267,46.761,24.135,48.014,24.854z M7.932,25.667
		c0.541-0.866,1.082-1.733,1.624-2.6c-0.66-0.351-0.661-0.351-0.931,0.314c-0.056,0.137-0.065,0.312-0.159,0.411
		C7.956,24.329,8.027,25.029,7.932,25.667z M22.7,11.649c-0.113,0.473-0.915,0.429-0.778,1.177c0.488-0.335,0.935-0.642,1.382-0.948
		c-0.025-0.042-0.049-0.084-0.074-0.126C23.076,11.721,22.92,11.692,22.7,11.649z M29.577,4.058c0.251,0.043,0.47,0.11,0.688,0.107
		c0.16-0.003,0.319-0.097,0.479-0.15c-0.054-0.15-0.067-0.364-0.174-0.433c-0.111-0.072-0.34-0.057-0.468,0.013
		C29.916,3.694,29.775,3.876,29.577,4.058z M57.511,39.187c-0.04,0.034-0.08,0.068-0.121,0.103c0.167,0.231,0.342,0.459,0.501,0.696
		c0.136,0.202,0.238,0.431,0.393,0.617c0.059,0.071,0.222,0.056,0.337,0.081c-0.022-0.093-0.018-0.208-0.072-0.273
		C58.21,39.997,57.859,39.594,57.511,39.187z M19.76,10.508c0.256-0.64,0.512-1.28,0.786-1.966
		C19.824,9.142,19.633,9.588,19.76,10.508z M32.141,8.821c-0.006,0.058-0.012,0.115-0.018,0.173c0.538,0.07,1.074,0.141,1.611,0.211
		c0.01-0.077,0.02-0.153,0.03-0.229C33.237,8.823,32.697,8.762,32.141,8.821z M31.06,10.648c0.009-0.028,0.019-0.056,0.028-0.084
		c-0.699-0.031-1.397-0.061-2.096-0.093c-0.002,0.059-0.005,0.118-0.007,0.177C29.677,10.648,30.369,10.648,31.06,10.648z"/>
	<path fill-rule="evenodd" clip-rule="evenodd" d="M59.982,72.511c-0.222-0.042-0.443-0.083-0.664-0.123
		c0.069-0.127,0.169-0.37,0.202-0.36c0.189,0.05,0.362,0.159,0.541,0.249C60.035,72.354,60.009,72.432,59.982,72.511z"/>
	<path fill-rule="evenodd" clip-rule="evenodd" fill="#FFFFFF" d="M6.333,51.299c1.701,0.401,3.356,0.435,5.009,0.377
		c1.846-0.064,3.689-0.192,5.532-0.309c0.594-0.037,1.218-0.03,1.769-0.218c0.908-0.307,1.907-0.35,2.714-0.983
		c0.422-0.332,0.955-0.529,1.452-0.758c0.565-0.259,0.682-0.777,0.881-1.288c0.149-0.383,0.408-0.786,0.731-1.026
		c0.698-0.521,1.065-1.261,1.517-1.952c0.206-0.315,0.424-0.623,0.619-0.944c0.098-0.162,0.157-0.349,0.236-0.522
		c0.157-0.344,0.339-0.678,0.468-1.031c0.19-0.519,0.333-1.053,0.514-1.574c0.217-0.626,0.386-1.281,0.698-1.858
		c0.447-0.825,0.549-1.721,0.739-2.604c0.053-0.247,0.244-0.468,0.281-0.714c0.165-1.084,0.3-2.174,0.438-3.262
		c0.084-0.663,0.155-1.327,0.227-1.952c0.478-0.06,0.99-0.154,1.505-0.168c0.133-0.003,0.379,0.236,0.394,0.381
		c0.135,1.326,0.221,2.655,0.339,3.982c0.049,0.552,0.151,1.099,0.207,1.651c0.106,1.043,0.203,2.087,0.29,3.131
		c0.104,1.246,0.437,2.453,1,3.54c0.415,0.8,1.135,1.441,1.725,2.147c0.466,0.558,0.924,1.125,1.419,1.656
		c0.519,0.56,1.062,1.098,1.624,1.614c0.475,0.437,0.96,0.875,1.496,1.229c0.641,0.424,1.353,0.738,2.012,1.137
		c0.924,0.56,2.004,0.517,2.985,0.823c1.372,0.431,2.742,0.38,4.121,0.215c1.154-0.137,2.298-0.358,3.443-0.558
		c0.324-0.056,0.636-0.187,0.961-0.229c0.089-0.011,0.298,0.181,0.29,0.265c-0.021,0.242-0.05,0.569-0.209,0.697
		c-0.546,0.44-0.506,1.143-0.847,1.676c-0.711,1.112-1.357,2.269-1.986,3.431c-0.427,0.789-0.998,1.44-1.636,2.055
		c-0.532,0.512-1.003,1.089-1.555,1.576c-0.393,0.347-0.876,0.589-1.317,0.882c-0.484,0.321-0.969,0.642-1.446,0.972
		c-0.608,0.422-1.197,0.873-1.816,1.276c-1.049,0.683-2.087,1.388-3.182,1.988c-1.034,0.568-2.116,1.059-3.21,1.504
		c-0.945,0.383-1.927,0.685-2.908,0.968c-1.129,0.326-2.262,0.678-3.418,0.858c-0.962,0.151-1.959,0.077-2.941,0.093
		c-0.443,0.007-0.896,0.046-1.327-0.027c-1.162-0.195-2.32-0.419-3.469-0.679c-0.761-0.172-1.511-0.405-2.252-0.651
		c-0.441-0.146-0.861-0.357-1.28-0.562c-0.622-0.302-1.271-0.568-1.844-0.948c-1.019-0.676-2.036-1.37-2.969-2.157
		c-1.029-0.868-1.989-1.824-2.927-2.793c-0.401-0.413-0.667-0.957-1.003-1.435c-0.206-0.292-0.443-0.565-0.639-0.863
		c-0.122-0.186-0.183-0.409-0.288-0.606c-0.496-0.931-1.029-1.843-1.487-2.79c-0.297-0.615-0.51-1.276-0.719-1.931
		c-0.159-0.495-0.218-1.023-0.387-1.516C6.765,52.092,6.529,51.702,6.333,51.299z M20.394,59.753
		c-0.105,0.075-0.229,0.233-0.369,0.249c-0.486,0.051-0.456,0.379-0.378,0.688c0.058,0.232,0.163,0.504,0.337,0.65
		c0.728,0.61,1.466,1.219,2.25,1.753c0.592,0.404,1.25,0.722,1.899,1.031c0.75,0.357,1.499,0.776,2.296,0.963
		c0.776,0.181,1.615,0.148,2.424,0.125c0.735-0.021,1.516-0.026,2.191-0.272c0.989-0.361,2.04-0.399,3.029-0.824
		c1.206-0.516,2.515-0.791,3.667-1.473c0.948-0.56,1.924-1.076,2.857-1.66c0.479-0.299,0.893-0.701,1.336-1.059
		c0.697-0.559,1.387-1.127,2.092-1.677c0.301-0.234,0.653-0.407,0.941-0.656c0.227-0.195,0.435-0.44,0.57-0.704
		c0.163-0.314,0.245-0.734-0.11-0.943c-0.421-0.249-0.914-0.495-1.382-0.507c-0.335-0.007-0.717,0.329-1.009,0.589
		c-0.363,0.323-0.612,0.78-0.989,1.081c-0.729,0.58-1.508,1.097-2.273,1.63c-0.766,0.533-1.517,1.093-2.316,1.57
		c-0.765,0.457-1.571,0.848-2.381,1.22c-0.416,0.19-0.881,0.269-1.318,0.414c-0.952,0.318-1.88,0.751-2.856,0.945
		c-1.128,0.225-2.296,0.287-3.45,0.342c-0.804,0.038-1.613-0.065-2.333-0.49c-0.607-0.358-1.208-0.726-1.808-1.099
		c-0.453-0.282-0.995-0.497-1.319-0.89c-0.332-0.4-0.677-0.635-1.158-0.748C20.695,59.97,20.574,59.858,20.394,59.753z
		 M35.084,49.643c0.05-0.86,0.153-1.689-0.816-2.195c-0.404-0.211-0.754-0.239-1.051-0.027c-0.163,0.116-0.188,0.502-0.18,0.764
		c0.011,0.404,0.138,0.805,0.154,1.209c0.044,1.146-0.28,2.158-1.191,2.912c-0.294,0.244-0.612,0.479-0.955,0.642
		c-0.389,0.185-0.81,0.342-1.232,0.404c-0.331,0.048-0.695-0.032-1.028-0.117c-0.854-0.214-1.347-0.791-1.674-1.603
		c-0.178-0.441-0.349-1.453-0.102-1.833c0.513-0.789,0.943-1.646,1.763-2.191c0.05-0.033,0.044-0.146,0.073-0.218
		c0.237-0.594-0.282-0.843-0.591-1.108c-0.25-0.215-0.66-0.258-1.008-0.331c-0.101-0.022-0.278,0.085-0.348,0.184
		c-0.426,0.601-0.816,1.228-1.248,1.824c-0.618,0.854-0.676,1.822-0.543,2.798c0.154,1.136,0.812,2.033,1.538,2.888
		c0.656,0.773,1.501,1.179,2.464,1.375c1.192,0.241,2.267-0.111,3.353-0.59c1.07-0.472,1.776-1.248,2.203-2.271
		C34.995,51.363,35.272,50.522,35.084,49.643z"/>
	<path fill-rule="evenodd" clip-rule="evenodd" fill="#FFFFFF" d="M19.14,30.67c0.39,0.076,0.719,0.19,1.05,0.195
		c1.447,0.017,2.894,0.002,4.34,0c0.457-0.001,0.914,0,1.489,0c0,0.884,0.003,1.769-0.001,2.653
		c-0.002,0.305-0.015,0.61-0.036,0.915c-0.106,1.562-0.215,3.125-0.327,4.688c-0.007,0.094-0.048,0.186-0.078,0.277
		c-0.156,0.479-0.292,0.967-0.478,1.434c-0.165,0.413-0.393,0.801-0.582,1.205c-0.555,1.182-1.199,2.319-2.005,3.339
		c-0.453,0.572-1.073,1.022-1.657,1.478c-0.625,0.488-1.264,0.976-1.957,1.354c-0.464,0.253-1.026,0.339-1.554,0.457
		c-0.629,0.142-1.269,0.335-1.903,0.331c-1.013-0.005-2,0.253-3.012,0.194c-0.896-0.054-1.824,0.053-2.683-0.146
		c-1.158-0.268-2.366-0.434-3.42-1.073c-0.287-0.174-0.651-0.218-0.95-0.377c-0.655-0.349-1.226-0.791-1.303-1.609
		c-0.05-0.526-0.054-1.057-0.109-1.583c-0.113-1.077-0.272-2.15-0.367-3.228c-0.106-1.214-0.176-2.43-0.236-3.646
		c-0.042-0.842-0.08-1.687-0.043-2.528c0.04-0.927,0.156-1.851,0.261-2.774c0.038-0.329,0.11-0.661,0.23-0.967
		c0.048-0.123,0.258-0.233,0.409-0.257c0.588-0.092,1.184-0.137,1.775-0.218c0.824-0.113,1.644-0.321,2.469-0.347
		c1.115-0.036,2.235,0.045,3.351,0.11c0.456,0.026,0.905,0.184,1.359,0.202c0.375,0.015,0.754-0.133,1.131-0.13
		c0.597,0.004,1.194,0.102,1.791,0.108c0.416,0.004,0.832-0.111,1.248-0.116c0.296-0.003,0.592,0.12,0.89,0.129
		C18.56,30.747,18.89,30.691,19.14,30.67z M17.449,38.014c-0.001-0.629-0.187-1.223-0.712-1.547
		c-0.542-0.333-1.176-0.526-1.783-0.743c-0.173-0.062-0.428-0.053-0.587,0.032c-0.509,0.269-0.989,0.59-1.482,0.888
		c-0.755,0.456-1.246,1.814-0.411,2.623c0.286,0.278,0.521,0.619,0.729,0.962c0.385,0.636,0.954,1.054,1.655,1.116
		c0.653,0.058,1.315,0.03,1.763-0.726C17.11,39.794,17.475,38.979,17.449,38.014z"/>
	<path fill-rule="evenodd" clip-rule="evenodd" fill="#FFFFFF" d="M47.661,32.45c-0.229,0.032-0.341,0.048-0.583,0.082
		c0.344,0.223,0.59,0.51,0.855,0.529c0.64,0.045,0.91,0.563,1.277,0.907c0.79,0.74,1.511,1.557,2.223,2.375
		c0.679,0.78,1.312,1.601,1.965,2.404c0.333,0.408,0.675,0.81,0.997,1.227c0.101,0.132,0.147,0.306,0.247,0.521
		c-0.232,0.015-0.377,0.023-0.655,0.041c0.273,0.221,0.441,0.386,0.635,0.506c0.382,0.238,0.673,0.514,0.872,0.951
		c0.443,0.971,0.972,1.903,1.459,2.854c0.13,0.254,0.22,0.528,0.357,0.778c0.216,0.394,0.06,0.61-0.298,0.789
		c-0.52,0.259-1.021,0.552-1.538,0.814c-0.98,0.496-1.952,1.014-2.954,1.461c-0.835,0.372-1.697,0.701-2.642,0.689
		c-1.39-0.017-2.784,0.022-4.169-0.074c-0.452-0.032-1.024,0.013-1.388-0.479c-0.092-0.124-0.396-0.069-0.572-0.157
		c-0.656-0.331-1.357-0.611-1.933-1.052c-0.733-0.56-1.571-0.999-2.141-1.774c-0.232-0.315-0.621-0.512-0.889-0.808
		c-0.312-0.343-0.597-0.716-0.845-1.106c-0.42-0.66-0.822-1.333-1.188-2.024c-0.126-0.238-0.11-0.55-0.18-0.821
		c-0.142-0.553-0.379-1.095-0.429-1.655c-0.082-0.918-0.306-1.81-0.411-2.72c-0.131-1.129-0.23-2.264-0.283-3.4
		c-0.047-0.999-0.009-2.002-0.009-3.032c1.628-0.072,3.146-0.124,4.662-0.21c1.226-0.069,2.449-0.178,3.672-0.267
		c0.117-0.009,0.241,0.027,0.35-0.002c0.946-0.253,1.383,0.441,1.908,0.997c0.417,0.444,0.863,0.862,1.294,1.293
		C47.426,32.187,47.516,32.293,47.661,32.45z M44.682,40.697c1.154,0.176,2.383-1.11,2.37-2.084c-0.002-0.183,0-0.368,0.03-0.548
		c0.125-0.747-0.456-1.682-1.152-1.929c-0.82-0.291-1.611-0.518-2.486-0.153c-0.403,0.168-1.256,0.904-1.271,1.326
		c-0.035,1.032-0.054,1.984,0.966,2.739C43.714,40.474,44.295,40.553,44.682,40.697z"/>
	<path fill-rule="evenodd" clip-rule="evenodd" fill="#FFFFFF" d="M40.608,26.014c-2.813,0-5.625-0.013-8.438,0.006
		c-1.102,0.008-2.203,0.085-3.305,0.133c-0.978,0.042-1.956,0.105-2.935,0.127c-0.899,0.021-1.801-0.047-2.697,0.008
		c-0.859,0.053-1.709,0.239-2.567,0.321c-1.493,0.143-2.989,0.245-4.482,0.379c-0.464,0.042-0.922,0.169-1.386,0.197
		c-1.721,0.104-3.443,0.184-5.165,0.27c-0.029,0.001-0.06-0.028-0.205-0.1c0.152-0.386,0.262-0.812,0.476-1.178
		c0.4-0.685,0.836-1.354,1.304-1.994c0.35-0.479,0.757-0.92,1.169-1.35c0.542-0.564,1.092-1.124,1.679-1.639
		c0.482-0.424,1.023-0.78,1.538-1.167c0.42-0.315,0.874-0.595,1.249-0.958c0.304-0.294,0.493-0.553,0.92-0.145
		c0.455,0.435,1.107,0.331,1.589,0.167c1.191-0.406,2.417-0.399,3.634-0.525c0.062-0.006,0.136,0.053,0.191,0.037
		c1.244-0.36,2.489-0.113,3.732-0.011c1.458,0.119,2.833,0.593,4.197,1.067c0.609,0.212,1.154,0.611,1.722,0.935
		c0.632,0.36,1.267,0.716,1.884,1.101c0.668,0.416,1.324,0.851,1.972,1.296c0.788,0.543,1.573,1.093,2.338,1.667
		c0.428,0.321,0.811,0.701,1.227,1.04c0.093,0.076,0.235,0.093,0.354,0.137C40.605,25.895,40.607,25.954,40.608,26.014z"/>
	<path fill-rule="evenodd" clip-rule="evenodd" fill="#FFFFFF" d="M31.517,18.02c1.113,0.241,2.234,0.45,3.333,0.74
		c0.406,0.107,0.763,0.401,1.137,0.618c0.889,0.516,1.77,1.044,2.663,1.553c0.386,0.22,0.797,0.396,1.189,0.607
		c0.562,0.302,1.161,0.558,1.666,0.939c0.851,0.643,1.649,1.357,2.451,2.063c0.413,0.363,0.784,0.774,1.227,1.216
		c-0.152-0.007-0.252,0.019-0.3-0.021c-0.275-0.222-0.546-0.453-0.806-0.693c-0.605-0.557-1.149-1.203-1.824-1.649
		c-0.403-0.267-1.01-0.226-1.527-0.319c-0.19-0.034-0.426,0.009-0.57-0.088c-1.216-0.82-2.385-1.714-3.63-2.485
		c-0.776-0.48-1.663-0.78-2.497-1.168c-0.853-0.396-1.701-0.801-2.551-1.202C31.491,18.094,31.503,18.057,31.517,18.02z"/>
	<path fill-rule="evenodd" clip-rule="evenodd" fill="#FFFFFF" d="M31.502,7.427c-0.344-0.062-0.53-0.145-0.7-0.119
		c-1.201,0.184-2.412,0.326-3.591,0.604c-1.245,0.296-2.459,0.723-3.684,1.105c-0.21,0.066-0.4,0.197-0.723,0.359
		c0.234-0.702,0.66-1.083,1.096-1.365c1.044-0.676,2.197-1.078,3.449-1.26c0.473-0.069,0.895-0.002,1.341-0.004
		c0.881-0.003,1.696,0.231,2.524,0.448C31.289,7.215,31.347,7.299,31.502,7.427z"/>
	<path fill-rule="evenodd" clip-rule="evenodd" fill="#FFFFFF" d="M6.458,14.052c-2.254,3.168-2.875,6.883-3.678,10.61
		c-0.043-0.212-0.141-0.431-0.12-0.636c0.082-0.786,0.183-1.571,0.315-2.35c0.144-0.851,0.254-1.721,0.52-2.536
		c0.294-0.9,0.708-1.768,1.145-2.61c0.352-0.677,0.802-1.306,1.238-1.936C6.026,14.381,6.263,14.23,6.458,14.052z"/>
	<path fill-rule="evenodd" clip-rule="evenodd" fill="#FFFFFF" d="M30.636,16.453c-2.604-0.438-5.204-0.945-7.868-0.622
		c-0.01-0.043-0.02-0.085-0.029-0.127c0.326-0.125,0.642-0.305,0.978-0.365c0.781-0.137,1.571-0.221,2.358-0.316
		c0.732-0.089,1.389,0.146,2.04,0.455c0.351,0.167,0.742,0.249,1.118,0.36c0.482,0.143,0.968,0.277,1.452,0.415
		C30.669,16.32,30.653,16.387,30.636,16.453z"/>
	<path fill-rule="evenodd" clip-rule="evenodd" fill="#FFFFFF" d="M17.294,15.75c0.497,0.654,1.551,0.905,2.338,0.583
		c0.188-0.077,0.41-0.069,0.616-0.1c0.015,0.046,0.031,0.092,0.046,0.138c-0.118,0.152-0.291,0.29-0.334,0.46
		c-0.03,0.118,0.119,0.281,0.188,0.422c-0.54,0.083-1.165,0.092-1.724,0.29c-0.512,0.181-0.904,0.384-1.118-0.312
		c-0.003-0.01-0.033-0.008-0.045-0.018C16.509,16.607,16.514,16.392,17.294,15.75z"/>
	<path fill-rule="evenodd" clip-rule="evenodd" fill="#FFFFFF" d="M34.641,13.45c-2.376-0.287-4.753-0.574-7.289-0.88
		c0.221-0.08,0.33-0.135,0.444-0.157c2.4-0.445,4.688-0.061,6.905,0.842C34.681,13.32,34.661,13.385,34.641,13.45z"/>
	<path fill-rule="evenodd" clip-rule="evenodd" fill="#FFFFFF" d="M17.498,14.392c0.475-0.025,0.982-0.027,1.481-0.086
		c0.402-0.048,0.499-0.335,0.486-0.722c-0.008-0.248,0.062-0.525,0.18-0.746c0.239-0.449,0.431-0.438,0.828-0.187
		c0.191,0.121,0.492,0.059,0.74,0.102c0.181,0.031,0.355,0.101,0.533,0.152c-0.087,0.19-0.137,0.417-0.271,0.563
		c-0.252,0.271-0.518,0.573-0.842,0.722c-0.402,0.184-0.867,0.246-1.31,0.323c-0.375,0.065-0.76,0.078-1.14,0.113
		c-0.033,0.003-0.068,0.003-0.099,0.014C17.621,14.799,17.622,14.799,17.498,14.392z"/>
	<path fill-rule="evenodd" clip-rule="evenodd" fill="#FFFFFF" d="M22.25,4.564c1.606-0.891,3.204-1.646,5.074-1.356
		c-0.165,0.308-0.231,0.583-0.405,0.718c-0.183,0.142-0.466,0.18-0.712,0.208c-0.859,0.097-1.723,0.155-2.581,0.26
		c-0.278,0.034-0.538,0.193-0.816,0.24C22.632,4.662,22.437,4.59,22.25,4.564z"/>
	<path fill-rule="evenodd" clip-rule="evenodd" fill="#FFFFFF" d="M50.803,31.118c0.252,0.021,0.391,0.031,0.528,0.042
		c-0.107-0.302-0.206-0.577-0.305-0.852c0.038-0.025,0.075-0.051,0.112-0.076c0.795,0.959,1.591,1.918,2.459,2.965
		C52.159,33.035,51.737,31.837,50.803,31.118z"/>
	<path fill-rule="evenodd" clip-rule="evenodd" fill="#FFFFFF" d="M44.616,11.936c-0.282-0.15-0.535-0.292-0.794-0.422
		c-0.682-0.346-1.372-0.677-2.043-1.04c-0.083-0.045-0.075-0.255-0.165-0.378c-0.065-0.218-0.129-0.435-0.215-0.726
		C43.55,10.575,44.634,11.458,44.616,11.936z"/>
	<path fill-rule="evenodd" clip-rule="evenodd" fill="#FFFFFF" d="M39.898,12.057c1.387,0.678,2.395,1.762,3.489,2.742
		c-0.034,0.047-0.069,0.094-0.104,0.141c-0.49-0.322-0.988-0.63-1.466-0.969c-0.62-0.438-1.187-0.962-1.843-1.332
		C39.523,12.383,39.744,12.26,39.898,12.057z"/>
	<path fill-rule="evenodd" clip-rule="evenodd" fill="#FFFFFF" d="M51.813,23.91c-0.396-0.375-0.773-0.751-1.172-1.103
		c-0.224-0.197-0.483-0.354-0.727-0.527c-0.14-0.101-0.39-0.194-0.396-0.302c-0.009-0.159,0.156-0.326,0.282-0.552
		c-0.007-0.036-0.034-0.171-0.075-0.373C51.248,22.45,51.967,23.429,51.813,23.91z"/>
	<path fill-rule="evenodd" clip-rule="evenodd" fill="#FFFFFF" d="M48.014,24.854c-1.253-0.719-2.187-1.587-2.949-2.579
		C45.588,22.156,47.328,23.58,48.014,24.854z"/>
	<path fill-rule="evenodd" clip-rule="evenodd" fill="#FFFFFF" d="M7.932,25.667c0.095-0.638,0.024-1.337,0.533-1.875
		c0.094-0.099,0.104-0.274,0.159-0.411c0.27-0.665,0.272-0.665,0.931-0.314C9.014,23.934,8.473,24.801,7.932,25.667z"/>
	<path fill-rule="evenodd" clip-rule="evenodd" fill="#FFFFFF" d="M22.7,11.649c0.221,0.043,0.376,0.073,0.531,0.103
		c0.025,0.042,0.049,0.083,0.074,0.126c-0.447,0.306-0.894,0.613-1.382,0.948C21.785,12.078,22.587,12.121,22.7,11.649z"/>
	<path fill-rule="evenodd" clip-rule="evenodd" fill="#FFFFFF" d="M29.577,4.058c0.198-0.182,0.34-0.364,0.525-0.464
		c0.128-0.069,0.357-0.084,0.468-0.013c0.107,0.069,0.12,0.283,0.174,0.433c-0.16,0.054-0.319,0.148-0.479,0.15
		C30.047,4.168,29.827,4.1,29.577,4.058z"/>
	<path fill-rule="evenodd" clip-rule="evenodd" fill="#FFFFFF" d="M57.511,39.187c0.348,0.406,0.699,0.81,1.039,1.224
		c0.054,0.065,0.05,0.181,0.072,0.273c-0.115-0.025-0.278-0.01-0.337-0.081c-0.155-0.187-0.257-0.415-0.393-0.617
		c-0.159-0.237-0.334-0.465-0.501-0.696C57.431,39.256,57.471,39.221,57.511,39.187z"/>
	<path fill-rule="evenodd" clip-rule="evenodd" fill="#FFFFFF" d="M19.76,10.508c-0.128-0.92,0.063-1.366,0.786-1.966
		C20.272,9.228,20.016,9.868,19.76,10.508z"/>
	<path fill-rule="evenodd" clip-rule="evenodd" fill="#FFFFFF" d="M32.141,8.821c0.556-0.059,1.096,0.001,1.623,0.155
		c-0.01,0.076-0.02,0.152-0.03,0.229c-0.537-0.07-1.074-0.141-1.611-0.211C32.129,8.936,32.135,8.879,32.141,8.821z"/>
	<path fill-rule="evenodd" clip-rule="evenodd" fill="#FFFFFF" d="M31.06,10.648c-0.691,0-1.383,0-2.075,0
		c0.002-0.059,0.005-0.118,0.007-0.177c0.699,0.031,1.397,0.062,2.096,0.093C31.079,10.592,31.07,10.62,31.06,10.648z"/>
	<path fill-rule="evenodd" clip-rule="evenodd" d="M20.394,59.753c0.18,0.105,0.301,0.217,0.441,0.249
		c0.48,0.113,0.826,0.348,1.158,0.748c0.324,0.393,0.866,0.607,1.319,0.89c0.599,0.372,1.2,0.74,1.808,1.099
		c0.72,0.426,1.53,0.528,2.333,0.49c1.154-0.055,2.322-0.116,3.45-0.342c0.976-0.194,1.904-0.627,2.856-0.945
		c0.437-0.146,0.903-0.224,1.318-0.414c0.81-0.372,1.616-0.763,2.381-1.22c0.799-0.478,1.551-1.037,2.316-1.57
		c0.765-0.533,1.545-1.05,2.273-1.63c0.377-0.301,0.626-0.758,0.989-1.081c0.293-0.26,0.674-0.596,1.009-0.589
		c0.468,0.012,0.961,0.258,1.382,0.507c0.355,0.209,0.273,0.629,0.11,0.943c-0.136,0.264-0.344,0.509-0.57,0.704
		c-0.289,0.249-0.641,0.422-0.941,0.656c-0.705,0.55-1.396,1.117-2.092,1.677c-0.443,0.358-0.857,0.76-1.336,1.059
		c-0.934,0.584-1.909,1.1-2.857,1.66c-1.151,0.682-2.461,0.957-3.667,1.473c-0.99,0.425-2.04,0.463-3.029,0.824
		c-0.675,0.246-1.455,0.251-2.191,0.272c-0.809,0.023-1.648,0.056-2.424-0.125c-0.797-0.187-1.546-0.605-2.296-0.963
		c-0.65-0.31-1.307-0.627-1.899-1.031c-0.785-0.534-1.522-1.143-2.25-1.753c-0.174-0.146-0.279-0.418-0.337-0.65
		c-0.078-0.31-0.108-0.638,0.378-0.688C20.164,59.986,20.289,59.828,20.394,59.753z"/>
	<path fill-rule="evenodd" clip-rule="evenodd" d="M35.084,49.643c0.188,0.879-0.088,1.72-0.419,2.514
		c-0.427,1.023-1.133,1.8-2.203,2.271c-1.087,0.479-2.162,0.831-3.353,0.59c-0.963-0.196-1.809-0.602-2.464-1.375
		c-0.726-0.854-1.383-1.752-1.538-2.888c-0.133-0.976-0.075-1.944,0.543-2.798c0.432-0.597,0.822-1.224,1.248-1.824
		c0.07-0.099,0.247-0.206,0.348-0.184c0.349,0.073,0.759,0.116,1.008,0.331c0.309,0.266,0.828,0.515,0.591,1.108
		c-0.029,0.072-0.023,0.185-0.073,0.218c-0.82,0.545-1.25,1.402-1.763,2.191c-0.247,0.38-0.076,1.392,0.102,1.833
		c0.327,0.812,0.82,1.389,1.674,1.603c0.333,0.085,0.697,0.165,1.028,0.117c0.422-0.062,0.843-0.22,1.232-0.404
		c0.343-0.163,0.661-0.398,0.955-0.642c0.911-0.754,1.235-1.767,1.191-2.912c-0.016-0.404-0.142-0.805-0.154-1.209
		c-0.007-0.262,0.018-0.647,0.18-0.764c0.297-0.212,0.647-0.184,1.051,0.027C35.237,47.954,35.134,48.783,35.084,49.643z"/>
	<path fill-rule="evenodd" clip-rule="evenodd" d="M17.449,38.014c0.026,0.965-0.339,1.779-0.829,2.605
		c-0.448,0.756-1.109,0.783-1.763,0.726c-0.701-0.062-1.27-0.48-1.655-1.116c-0.208-0.343-0.444-0.684-0.729-0.962
		c-0.834-0.809-0.344-2.167,0.411-2.623c0.493-0.298,0.974-0.62,1.482-0.888c0.16-0.084,0.414-0.093,0.587-0.032
		c0.607,0.217,1.241,0.41,1.783,0.743C17.263,36.792,17.448,37.386,17.449,38.014z"/>
	<path fill-rule="evenodd" clip-rule="evenodd" d="M44.682,40.697c-0.387-0.145-0.969-0.223-1.544-0.648
		c-1.02-0.755-1.001-1.707-0.966-2.739c0.015-0.422,0.868-1.158,1.271-1.326c0.875-0.365,1.666-0.138,2.486,0.153
		c0.697,0.246,1.277,1.182,1.152,1.929c-0.03,0.18-0.032,0.365-0.03,0.548C47.066,39.587,45.836,40.873,44.682,40.697z"/>
</g>
</svg>
